HIERARCHY
ROOT root
{
	OFFSET 0.000000 0.000000 0.000000
	CHANNELS 6 Xposition Yposition Zposition Zrotation Yrotation Xrotation
	JOINT lhip
	{
		OFFSET 0.058581 -0.082280 -0.017664
		CHANNELS 3 Zrotation Yrotation Xrotation
		JOINT lknee
		{
			OFFSET 0.043451 -0.386469 0.008037
			CHANNELS 3 Zrotation Yrotation Xrotation
			JOINT lankle
			{
				OFFSET -0.014790 -0.426874 -0.037428
				CHANNELS 3 Zrotation Yrotation Xrotation
				JOINT ltoe
				{
					OFFSET 0.041054 -0.060286 0.122042
					CHANNELS 3 Zrotation Yrotation Xrotation
					End Site
					{
						OFFSET 0.000000 0.000000 0.000000
					}
				}
			}
		}
	}
	JOINT rhip
	{
		OFFSET -0.060310 -0.090513 -0.013543
		CHANNELS 3 Zrotation Yrotation Xrotation
		JOINT rknee
		{
			OFFSET -0.043257 -0.383688 -0.004843
			CHANNELS 3 Zrotation Yrotation Xrotation
			JOINT rankle
			{
				OFFSET 0.019056 -0.420046 -0.034562
				CHANNELS 3 Zrotation Yrotation Xrotation
				JOINT rtoe
				{
					OFFSET -0.034840 -0.062106 0.130323
					CHANNELS 3 Zrotation Yrotation Xrotation
					End Site
					{
						OFFSET 0.000000 0.000000 0.000000
					}
				}
			}
		}
	}
	JOINT lowerback
	{
		OFFSET 0.004439 0.124404 -0.038385
		CHANNELS 3 Zrotation Yrotation Xrotation
		JOINT upperback
		{
			OFFSET 0.004488 0.137956 0.026820
			CHANNELS 3 Zrotation Yrotation Xrotation
			JOINT chest
			{
				OFFSET -0.002265 0.056032 0.002855
				CHANNELS 3 Zrotation Yrotation Xrotation
				JOINT lowerneck
				{
					OFFSET -0.013390 0.211636 -0.033468
					CHANNELS 3 Zrotation Yrotation Xrotation
					JOINT upperneck
					{
						OFFSET 0.010113 0.088937 0.050410
						CHANNELS 3 Zrotation Yrotation Xrotation
						End Site
						{
							OFFSET 0.000000 0.000000 0.000000
						}
					}
				}
				JOINT lclavicle
				{
					OFFSET 0.071702 0.114000 -0.018898
					CHANNELS 3 Zrotation Yrotation Xrotation
					JOINT lshoulder
					{
						OFFSET 0.122921 0.045205 -0.019046
						CHANNELS 3 Zrotation Yrotation Xrotation
						JOINT lelbow
						{
							OFFSET 0.255332 -0.015649 -0.022946
							CHANNELS 3 Zrotation Yrotation Xrotation
							JOINT lwrist
							{
								OFFSET 0.265709 0.012698 -0.007375
								CHANNELS 3 Zrotation Yrotation Xrotation
								End Site
								{
									OFFSET 0.000000 0.000000 0.000000
								}
							}
						}
					}
				}
				JOINT rclavicle
				{
					OFFSET -0.082954 0.112472 -0.023707
					CHANNELS 3 Zrotation Yrotation Xrotation
					JOINT rshoulder
					{
						OFFSET -0.113228 0.046853 -0.008472
						CHANNELS 3 Zrotation Yrotation Xrotation
						JOINT relbow
						{
							OFFSET -0.260127 -0.014369 -0.031269
							CHANNELS 3 Zrotation Yrotation Xrotation
							JOINT rwrist
							{
								OFFSET -0.269108 0.006794 -0.006027
								CHANNELS 3 Zrotation Yrotation Xrotation
								End Site
								{
									OFFSET 0.000000 0.000000 0.000000
								}
							}
						}
					}
				}
			}
		}
	}
}
MOTION
Frames: 17
Frame Time: 0.033333
1.379229 1.147228 0.964898 -97.861661 -1.819911 91.723618 -2.473654 -9.381560 -18.714417 -5.148315 -2.055887 22.005250 12.303746 15.861021 -8.379421 0.000000 -0.000000 0.000000 -4.211378 -2.047421 3.348812 -2.779730 3.010585 58.003520 6.196276 -14.668840 13.745762 0.000000 -0.000000 0.000000 -5.576200 7.624722 2.307932 -0.363301 2.872365 0.011064 -1.762980 3.624169 5.293866 1.851365 -9.129252 -0.644985 3.502047 -4.302443 9.325574 -18.040232 16.543785 0.853293 -47.082803 4.986838 16.053620 -126.837710 -59.317386 163.533836 24.745166 -15.608150 -0.323541 15.678861 -9.275331 -5.003590 60.207715 -10.123834 22.083014 114.627835 76.542216 142.690423 -22.413486 16.367065 -2.514404 
1.310013 1.146884 0.945072 -96.558038 -2.456932 90.460663 -5.213357 -8.174370 -15.634767 -6.507019 -3.863985 28.947023 14.376084 18.008688 -16.648984 0.000000 -0.000000 0.000000 -4.841294 -1.543904 -2.588462 -2.723606 2.066940 69.322115 6.729879 -14.362395 8.980438 0.000000 -0.000000 0.000000 -6.203091 5.776128 4.822473 -0.451608 1.955776 -0.796049 -2.101689 2.215919 6.230215 2.957064 -7.588484 -1.998452 3.046447 -3.421887 9.130855 -21.659939 14.036031 -0.617734 -47.229335 1.886585 16.740255 -124.252393 -62.995101 161.066183 24.594245 -15.166922 1.614394 18.496506 -10.332100 -6.114492 58.442405 -13.345610 21.374950 92.676612 80.076663 121.506371 -23.236665 14.663760 -0.972405 
1.244111 1.148045 0.935889 -95.920946 -2.327531 90.029996 -6.257755 -6.601201 -11.152160 -7.694438 -5.446015 30.955487 14.514155 19.249437 -20.858250 0.000000 -0.000000 0.000000 -4.567185 -0.403991 -10.835523 -2.386612 0.627531 77.494715 5.927780 -15.574735 2.983594 0.000000 -0.000000 0.000000 -6.369477 3.829527 6.404066 -0.353932 1.537359 -0.961513 -2.223539 0.643696 6.499188 3.113188 -6.182165 -2.441045 3.101671 -2.206775 9.013661 -23.859005 11.083174 -0.694126 -48.646241 -2.307055 16.839165 -121.848921 -66.407302 158.285946 24.052009 -14.482255 5.097282 20.178345 -11.108482 -5.605975 57.072219 -16.601501 19.769024 69.211267 81.738319 96.926655 -23.953146 14.070302 0.596376 
1.162854 1.148728 0.943176 -93.757865 -0.655090 90.147523 -5.802777 -4.077183 -4.683955 -7.833342 -9.964410 30.268921 11.634125 18.161048 -21.972062 0.000000 -0.000000 0.000000 -3.034047 -0.388543 -21.167160 -3.879856 -2.276005 79.577736 5.515406 -15.995381 -2.609602 0.000000 -0.000000 0.000000 -4.736612 -0.136600 7.721387 0.007419 0.205223 -1.211583 -1.991712 -1.586616 6.545962 1.768907 -4.572676 -2.114121 2.818999 0.766876 8.555981 -24.141799 8.894781 -0.818877 -52.278647 -6.703153 16.701445 -123.516410 -68.029670 160.141909 24.614372 -15.555552 6.103504 18.866582 -12.695489 -4.943636 55.053511 -20.557940 17.499672 73.586628 80.675406 100.684137 -22.462496 15.106488 -0.985070 
1.113314 1.149332 0.956087 -91.961336 0.824501 90.506198 -4.542443 -2.774418 -0.658874 -7.437100 -12.816884 28.513990 9.092990 16.904114 -19.825989 0.000000 -0.000000 0.000000 -2.086785 -0.414823 -26.140934 -4.473355 -4.922709 76.043650 5.455658 -15.655186 -4.420634 0.000000 -0.000000 0.000000 -3.243692 -2.876194 7.835149 0.458948 -0.969141 -0.898633 -1.763676 -2.943880 6.280775 0.659022 -3.310972 -1.226334 2.455743 2.537182 7.653106 -23.580456 7.899654 -0.847281 -53.997867 -8.565183 16.843798 -126.944643 -67.922829 164.214435 24.762902 -15.544309 5.621848 17.422528 -13.740365 -4.457466 53.479238 -22.063274 16.338245 84.873236 79.024816 113.499466 -21.615650 14.383235 -2.877293 
1.046085 1.150637 0.978944 -89.842876 2.675042 91.609441 -2.221177 -1.436697 3.574291 -6.695441 -14.695214 25.589262 5.403657 15.096648 -13.312829 0.000000 -0.000000 0.000000 -1.683335 0.083494 -31.034251 -4.116225 -9.350403 66.157527 5.397089 -14.450417 -4.562344 0.000000 -0.000000 0.000000 -1.437315 -6.200914 7.005236 1.211846 -2.503307 -0.055310 -1.346674 -4.564474 5.419025 -0.812604 -1.606538 0.439727 2.125460 4.792035 6.074128 -22.613977 7.098546 -0.619194 -54.886322 -10.282908 17.476405 -131.128615 -66.998148 168.257488 24.727151 -15.299179 5.611134 15.737980 -14.928161 -3.416298 52.021030 -23.441920 15.433762 93.278790 77.366406 121.684094 -22.327305 13.736356 -5.421139 
0.976931 1.151754 1.002586 -88.345192 4.181969 93.292532 0.316717 0.131799 6.366071 -5.764418 -14.591969 22.507701 1.660817 13.266247 -3.298308 0.000000 -0.000000 0.000000 -1.584206 0.462745 -33.671640 -2.517136 -13.099957 51.051993 5.430023 -13.175110 -1.335200 0.000000 -0.000000 0.000000 0.218654 -8.779328 5.235917 1.964137 -3.870902 0.901833 -0.887347 -5.800963 4.313086 -2.396507 -0.255977 1.927531 1.915923 6.863078 4.668391 -21.408520 7.137435 0.092625 -54.919509 -11.299349 17.760955 -132.811507 -65.599993 170.315875 24.392338 -16.009011 5.812493 14.343561 -16.231134 -1.972912 51.237540 -23.591748 14.447982 97.189694 76.396060 125.840259 -22.495261 13.926737 -6.164047 
0.905472 1.151946 1.020579 -87.628240 5.162332 95.287571 2.311023 1.522975 8.179769 -4.871219 -13.009318 20.145981 -1.094986 11.399937 7.705839 0.000000 -0.000000 0.000000 -1.149017 0.565382 -34.254412 -0.298697 -14.325247 33.068998 5.554564 -12.303039 5.711659 0.000000 -0.000000 0.000000 1.897635 -10.286570 2.288277 2.385351 -4.885083 2.039298 -0.641720 -6.580535 3.418603 -4.321507 0.157001 3.503629 1.876634 8.992385 3.299429 -19.909260 7.793483 1.240367 -54.918061 -11.752041 17.760133 -132.375121 -64.102625 170.611485 23.703638 -16.928493 5.425577 12.700261 -17.544202 -0.057785 51.661624 -22.965856 13.384975 100.553584 76.293642 129.738778 -21.872487 14.301994 -6.784348 
0.830751 1.152084 1.028187 -87.712478 5.546659 96.422338 3.034736 2.527160 9.631442 -4.097268 -10.803932 20.948344 -2.325009 10.458608 16.183623 0.000000 -0.000000 0.000000 -0.782972 0.703967 -32.687284 1.829075 -12.698940 17.249407 5.938319 -11.407170 12.682406 0.000000 -0.000000 0.000000 3.105259 -10.746716 -0.706307 2.299749 -5.456010 3.508590 -0.696995 -6.669248 2.923929 -6.092257 -0.191705 5.092959 2.184445 10.817002 1.730249 -18.485252 8.661369 2.257116 -54.860688 -11.489926 17.555528 -130.875740 -62.617255 169.607083 22.743018 -17.126458 4.892658 11.202112 -18.260276 1.785903 53.028821 -22.263228 12.382040 104.533709 76.778602 133.692046 -20.690779 14.369270 -7.168291 
0.735960 1.154987 1.021023 -88.831714 5.708474 95.977496 2.516313 1.830928 10.266177 -3.693753 -7.646554 28.673771 -1.967546 12.412544 20.551111 0.000000 -0.000000 0.000000 -0.279476 0.542206 -30.493755 2.848909 -11.158508 10.502604 6.154850 -11.393071 16.708607 0.000000 -0.000000 0.000000 3.696507 -9.838507 -2.526626 1.987014 -5.237004 4.463637 -1.134362 -6.202767 3.279374 -6.775394 -0.685155 5.794550 2.042525 11.414998 1.422460 -17.690392 9.929033 2.742447 -54.456075 -9.728418 17.427369 -128.762530 -61.306155 167.173587 22.234137 -16.802468 3.556219 11.146738 -18.382049 1.959690 53.503933 -21.277322 12.391054 107.436718 77.168216 135.871448 -20.596999 13.790991 -7.512931 
0.661244 1.157790 1.003579 -90.160299 5.971351 94.542903 2.112283 0.922663 9.630428 -4.415558 -5.086421 39.257430 -0.864998 14.170133 17.846814 0.000000 -0.000000 0.000000 0.024103 1.320228 -28.853191 2.747537 -9.837277 14.744063 4.872156 -11.469328 16.379249 0.000000 -0.000000 0.000000 3.755972 -8.658718 -2.226163 2.188778 -4.092048 4.399334 -1.533853 -5.653245 3.896924 -5.962670 -0.912036 5.125211 0.738605 10.600755 3.301836 -18.275844 11.341057 2.743304 -53.796509 -7.347511 17.272115 -126.167504 -61.437031 164.890300 21.612432 -16.971185 4.216808 12.686088 -17.881174 0.681396 51.843161 -19.441077 13.328940 105.387692 77.314518 133.435204 -21.221707 13.664868 -7.831972 
0.587945 1.160584 0.977379 -91.785441 6.411357 92.513117 2.752153 1.231025 8.448810 -4.648340 -1.880742 50.659900 -1.031703 15.802381 13.121439 0.000000 -0.000000 0.000000 0.565820 2.897230 -27.592041 2.477007 -7.874849 25.892981 2.081808 -10.323248 3.366590 0.000000 -0.000000 0.000000 3.473805 -7.562685 -0.616466 2.710117 -2.340157 4.217638 -1.805391 -4.590114 4.120421 -4.075212 -0.025322 3.670543 -1.074291 7.944586 5.908527 -19.165042 12.774556 2.299878 -53.031428 -3.887917 16.961602 -123.196245 -62.358869 162.307779 21.394110 -16.482679 4.593918 15.442126 -16.168799 -0.572487 49.136274 -16.598903 13.770436 100.312434 77.153416 128.204265 -22.568150 13.697586 -8.413638 
0.520830 1.163118 0.948189 -94.067850 6.847014 90.011634 3.604024 1.945287 6.096640 -3.985016 1.260253 62.464010 -1.522361 16.639658 7.016479 0.000000 -0.000000 0.000000 1.686488 3.266402 -26.925366 1.710454 -6.577357 38.914131 0.281823 -9.398455 -9.804382 0.000000 -0.000000 0.000000 2.966607 -5.700357 2.736696 3.212319 -0.302636 4.043204 -1.808813 -3.070533 4.333121 -2.080902 1.095891 0.389852 -2.879406 4.415743 8.070746 -21.024429 13.520677 0.948971 -51.808440 -0.057763 16.503735 -117.995169 -64.980176 156.499146 21.183648 -15.882947 5.940217 19.632478 -12.755897 -2.793517 46.031168 -13.050599 14.556220 92.984772 77.987341 120.145249 -23.545333 13.760842 -7.246101 
0.458947 1.161834 0.926378 -95.535210 7.028304 87.638035 4.306094 1.007186 1.726937 -4.029973 4.186709 73.087470 -1.364885 17.230230 0.489222 0.000000 -0.000000 0.000000 2.015640 2.773423 -22.532904 2.041294 -5.046788 44.303871 -1.647886 -10.240144 -18.573735 0.000000 -0.000000 0.000000 2.999796 -3.416796 6.439514 3.227645 1.023545 4.197707 -1.899979 -1.607698 4.677233 -1.039240 1.440782 -3.218157 -4.266526 1.995255 9.260709 -22.697814 14.019031 -0.016495 -51.031087 2.909462 14.983989 -109.031485 -67.795425 147.125591 20.549824 -13.596578 6.845022 22.615386 -8.803870 -3.553158 45.012270 -6.775957 15.095169 82.415674 78.963300 109.725520 -24.808357 12.928740 -5.005633 
0.399922 1.156347 0.918006 -95.797345 6.332070 87.252587 4.790371 -0.573879 -6.182779 -3.354530 7.380342 80.590347 -0.522661 17.130529 -5.384997 0.000000 -0.000000 0.000000 1.100361 1.825471 -18.331286 1.874022 -3.551509 45.946507 -2.152727 -11.134338 -23.191712 0.000000 -0.000000 0.000000 2.431559 -0.671709 8.064655 2.962959 1.835895 3.882530 -2.175849 -0.108513 4.593139 -0.231678 1.014181 -5.071953 -4.745034 -0.011374 10.012742 -22.915049 14.801382 0.205437 -49.535044 5.675563 13.475764 -106.205237 -68.187319 143.962733 20.968479 -12.775921 6.153382 23.739002 -5.899388 -3.435921 46.507076 -0.697179 15.524170 78.621226 79.525962 106.527929 -25.659548 12.788249 -3.713189 
0.341544 1.146346 0.924814 -95.917545 5.315140 87.403246 5.740477 -0.680031 -14.374675 -2.111311 10.270222 82.175166 0.530997 16.725371 -10.041919 0.000000 -0.000000 0.000000 -0.717901 -0.028248 -13.706657 1.395505 -1.832781 44.953600 -0.681444 -9.567741 -23.191935 0.000000 -0.000000 0.000000 1.510116 2.502359 9.436779 2.280525 2.846591 2.721347 -2.147941 1.769936 4.156573 0.200443 -0.128644 -5.501687 -4.303993 -2.037213 10.297812 -21.521480 15.399271 0.592615 -47.766389 8.424914 12.563424 -109.605103 -66.134369 147.741964 22.357650 -13.700139 4.595806 22.874776 -3.512196 -3.612067 49.542035 2.991927 15.913561 85.170603 79.865213 113.237257 -26.209187 13.124555 -3.494181 
0.280330 1.133687 0.944614 -96.004191 4.276471 87.668453 7.070654 0.618284 -20.455520 -1.562540 13.498227 77.108044 1.256335 15.882606 -11.954718 0.000000 -0.000000 0.000000 -3.224322 -2.677130 -7.754679 0.924874 0.228145 40.572245 1.765719 -6.348055 -18.498933 0.000000 -0.000000 0.000000 -0.019935 6.297825 9.425848 1.795125 3.788173 2.466822 -1.633036 3.616299 3.494611 0.411180 -1.381885 -4.813888 -3.316454 -4.060678 10.339562 -19.445436 15.478408 1.149927 -46.681859 10.378369 12.424768 -112.970882 -63.705032 150.891245 23.822518 -14.648731 1.897745 21.381022 -1.573011 -3.214713 51.853495 5.257886 16.191677 95.875048 80.093734 123.598215 -25.755339 13.509221 -3.879020 
